<?xml version="1.0" encoding="UTF-8"?>
<!DOCTYPE svg PUBLIC "-//W3C//DTD SVG 1.1//EN" "http://www.w3.org/Graphics/SVG/1.1/DTD/svg11.dtd">
<svg version="1.1" xmlns="http://www.w3.org/2000/svg" xmlns:xlink="http://www.w3.org/1999/xlink" x="0px" y="0px" width="128" height="128" viewBox="0, 0, 128, 128">
  <g id="Background">
    <rect x="0" y="0" width="128" height="128" fill="#000000" fill-opacity="0"/>
  </g>
  <g id="Background"/>
  <g id="Background">
    <path d="M18.093,6 L109.907,6 C116.561,6 122,11.439 122,18.093 L122,109.907 C122,116.561 116.561,122 109.907,122 L18.093,122 C11.439,122 6,116.561 6,109.907 L6,18.093 C6,11.439 11.439,6 18.093,6" fill="#727272"/>
    <path d="M28.306,15.559 L99.701,15.559 C102.892,15.559 105.802,16.873 107.908,18.984 L107.916,18.971 C110.017,21.072 111.328,23.985 111.328,27.186 L111.328,100.819 C111.328,104.007 110.017,106.907 107.916,109.011 L107.893,109.035 C105.787,111.136 102.887,112.446 99.701,112.446 L28.306,112.446 C25.105,112.446 22.19,111.136 20.089,109.035 L20.104,109.026 C17.993,106.92 16.678,104.012 16.678,100.819 L16.678,27.186 C16.678,23.985 17.988,21.072 20.089,18.971 C22.19,16.87 25.105,15.559 28.306,15.559 z M99.701,26.977 L28.306,26.977 C28.259,26.977 28.204,27.004 28.164,27.044 C28.122,27.086 28.095,27.141 28.095,27.186 L28.095,100.819 C28.095,100.883 28.117,100.938 28.142,100.96 L28.164,100.96 C28.204,101.001 28.259,101.028 28.306,101.028 L99.701,101.028 C99.763,101.028 99.818,101.006 99.842,100.983 L99.865,100.96 C99.888,100.938 99.91,100.883 99.91,100.819 L99.91,27.186 C99.91,27.141 99.883,27.086 99.842,27.044 L99.842,27.022 C99.818,26.999 99.763,26.977 99.701,26.977" fill="#EBECEC"/>
    <path d="M24.528,75.199 L105.282,75.199 L105.282,81.226 L24.528,81.226 z M24.528,47.725 L105.282,47.725 L105.282,53.752 L24.528,53.752 z" fill="#EBECEC"/>
    <path d="M39.481,63.617 L39.481,40.544 C38.677,41.101 37.81,41.696 36.882,42.331 C35.955,42.965 35.229,43.468 34.699,43.842 L34.699,35.485 L40.737,31.306 L48.487,31.306 L48.487,63.617 z" fill="#84D0F4"/>
    <path d="M95.599,84.721 C95.599,86.356 95.293,87.822 94.69,89.127 C94.088,90.434 93.256,91.544 92.191,92.462 C91.133,93.375 89.876,94.078 88.42,94.566 C86.968,95.056 85.378,95.302 83.648,95.302 C81.948,95.302 80.372,95.056 78.921,94.566 C77.469,94.078 76.217,93.375 75.176,92.462 C74.129,91.544 73.303,90.434 72.7,89.127 C72.097,87.822 71.796,86.356 71.796,84.721 L71.796,71.398 C71.796,69.736 72.097,68.247 72.7,66.942 C73.303,65.635 74.139,64.52 75.199,63.589 C76.257,62.658 77.519,61.949 78.97,61.456 C80.424,60.968 81.98,60.721 83.648,60.721 C85.346,60.721 86.926,60.968 88.397,61.456 C89.868,61.949 91.133,62.658 92.191,63.589 C93.256,64.52 94.088,65.635 94.69,66.942 C95.293,68.247 95.599,69.736 95.599,71.398 z M86,71.645 C86,70.472 85.784,69.636 85.36,69.148 C84.935,68.659 84.364,68.411 83.648,68.411 C82.931,68.411 82.363,68.659 81.957,69.148 C81.551,69.636 81.345,70.472 81.345,71.645 L81.345,84.524 C81.345,85.702 81.551,86.515 81.957,86.976 C82.363,87.434 82.931,87.661 83.648,87.661 C84.364,87.661 84.935,87.397 85.36,86.876 C85.784,86.356 86,85.57 86,84.524 z" fill="#84D0F4"/>
    <path d="M58.384,63.617 L58.384,40.544 C57.58,41.101 56.711,41.696 55.785,42.331 C54.857,42.965 54.132,43.468 53.602,43.842 L53.602,35.485 L59.639,31.306 L67.39,31.306 L67.39,63.617 z" fill="#84D0F4"/>
  </g>
  <defs/>
</svg>
